<?xml version="1.0" encoding="UTF-8"?>
<svg id="Layer_1" data-name="Layer 1" xmlns="http://www.w3.org/2000/svg" viewBox="0 0 20.29 18.85">
  <defs>
    <style>
      .cls-1 {
        fill: #231f20;
      }
    </style>
  </defs>
  <path class="cls-1" d="m19.54,7.23h-3.15L12.99.41c-.19-.37-.63-.52-1.01-.34-.37.19-.52.64-.34,1.01l3.07,6.14H5.58l3.07-6.14c.19-.37.04-.82-.34-1.01-.37-.18-.82-.03-1.01.34l-3.41,6.81H.75c-.41,0-.75.34-.75.75s.34.75.75.75h.16l.85,2.99c-.19.14-.32.35-.32.6,0,.4.31.71.7.74l1.66,5.79h12.7l1.66-5.79c.39-.03.7-.34.7-.74,0-.25-.13-.46-.32-.6l.85-2.99h.16c.41,0,.75-.34.75-.75s-.34-.75-.75-.75Zm-4.18,10.12H4.93l-1.22-4.28h12.88l-1.22,4.28Zm1.65-5.78H3.28l-.81-2.84h15.36l-.81,2.84Z"/>
</svg>