<?xml version="1.0" encoding="UTF-8"?>
<svg id="Layer_1" data-name="Layer 1" xmlns="http://www.w3.org/2000/svg" viewBox="0 0 154.38 195.33">
  <defs>
    <style>
      .cls-1 {
        stroke: #231f20;
        stroke-miterlimit: 10;
      }
    </style>
  </defs>
  <path class="cls-1" d="m78,.59l-.81-.08L.5,8.54v140.57l76.69,45.63,76.69-45.63V8.54L78,.59Zm65.86,142.82l-66.66,39.66L10.53,143.41v-57.62l66.37,39.51.11,7.16-45.53-27.1-.07,6.95,45.71,27.47.11,7.35-45.7-27.19-.07,6.95,45.71,27.47,46.15-27.62v-6.98l-.06.03v-22.71l20.57-12.28v58.58Zm-.05-66.06l-18.24,10.74-8.42,4.96-40.15-23.88-.07,6.95,34.32,20.41-.3.18-.74.44-4.88,2.87-28.33-16.85-.07,6.95,22.36,13.3-5.28,3.53-.13.08-16.89-9.95-.07,6.95,11.08,6.53-11.29,6.78L10.68,78.06l66.14-39.75h0s66.98,39.04,66.98,39.04Zm.05-6.99L76.83,30.85h0s0,0,0,0h0s0,0,0,0L10.53,70.31V17.58l66.66-6.99,66.66,6.99v52.78Z"/>
</svg>