<?xml version="1.0" encoding="UTF-8"?>
<svg id="Layer_1" data-name="Layer 1" xmlns="http://www.w3.org/2000/svg" viewBox="0 0 31.97 37.3">
  <defs>
    <style>
      .cls-1 {
        fill: #231f20;
        stroke-width: 0px;
      }
    </style>
  </defs>
  <path class="cls-1" d="m15.99,37.3c8.83,0,15.99-7.16,15.99-15.99-8.83,0-15.99,7.16-15.99,15.99ZM4.63,16.43c0,2.45,1.99,4.44,4.44,4.44.93,0,1.8-.29,2.51-.78l-.04.34c0,2.45,1.99,4.44,4.44,4.44s4.44-1.99,4.44-4.44l-.04-.34c.72.5,1.58.78,2.51.78,2.45,0,4.44-1.99,4.44-4.44,0-1.77-1.04-3.29-2.54-4,1.49-.71,2.54-2.23,2.54-4,0-2.45-1.99-4.44-4.44-4.44-.93,0-1.8.29-2.51.78l.04-.34c0-2.45-1.99-4.44-4.44-4.44s-4.44,1.99-4.44,4.44l.04.34c-.72-.5-1.58-.78-2.51-.78-2.45,0-4.44,1.99-4.44,4.44,0,1.77,1.04,3.29,2.54,4-1.5.71-2.54,2.23-2.54,4ZM15.99,7.99c2.45,0,4.44,1.99,4.44,4.44s-1.99,4.44-4.44,4.44-4.44-1.99-4.44-4.44,1.99-4.44,4.44-4.44ZM0,21.31c0,8.83,7.16,15.99,15.99,15.99,0-8.83-7.16-15.99-15.99-15.99Z"/>
</svg>