<?xml version="1.0" encoding="UTF-8"?>
<svg id="Money" xmlns="http://www.w3.org/2000/svg" viewBox="0 0 46.58 27.33">
  <defs>
    <style>
      .cls-1 {
        stroke-width: 0px;
      }
    </style>
  </defs>
  <path class="cls-1" d="m42.67,0H3.9C1.75,0,0,1.75,0,3.9v19.52c0,2.16,1.75,3.91,3.9,3.91h38.77c2.16,0,3.91-1.75,3.91-3.91V3.9c0-2.16-1.75-3.9-3.91-3.9ZM3.02,24.95V2.72h40.2v22.23H3.02Z"/>
  <path class="cls-1" d="m6.93,21.05h32.39V6.62H6.93v14.42Zm16.36-12.53c2.94,0,5.31,2.38,5.31,5.31s-2.38,5.31-5.31,5.31-5.31-2.38-5.31-5.31,2.38-5.31,5.31-5.31Z"/>
</svg>