<?xml version="1.0" encoding="UTF-8"?>
<svg id="Layer_1" data-name="Layer 1" xmlns="http://www.w3.org/2000/svg" viewBox="0 0 54.16 23.18">
  <defs>
    <style>
      .cls-1 {
        stroke-width: 0px;
      }
    </style>
  </defs>
  <path class="cls-1" d="m40.31,5.71c-3.65-.97-7.84-1.67-12.36-1.67-2.89,0-5.46.24-7.71.62L13.46,0H0s5.81,6.19,5.81,6.19h8.45c-4.58,1.6-6.76,3.51-6.76,3.51v3.78s2.32,1.91,6.93,3.52H5.81S0,23.18,0,23.18h13.46s6.82-4.69,6.82-4.69c2.26.4,4.82.65,7.68.65,4.52,0,8.71-.7,12.36-1.67-1.18-1.78-1.91-3.74-1.92-5.88,0-2.14.74-4.11,1.92-5.88Z"/>
  <path class="cls-1" d="m43.73,6.75c-1.28,1.6-1.97,3.25-1.96,4.84,0,1.6.68,3.24,1.97,4.85,6.4-2.16,10.42-4.84,10.42-4.84,0,0-4.02-2.68-10.42-4.85Z"/>
</svg>