<?xml version="1.0" encoding="UTF-8"?>
<svg id="Layer_1" data-name="Layer 1" xmlns="http://www.w3.org/2000/svg" viewBox="0 0 32.67 32.49">
  <defs>
    <style>
      .cls-1 {
        fill: #231f20;
        stroke-width: 0px;
      }
    </style>
  </defs>
  <path class="cls-1" d="m2.89,32.49h12.5v-13.91H2.89v13.91ZM31.08,8.87h-7.33c.52-.27.98-.55,1.4-.84,1.59-1.13,2.42-2.57,2.42-4,0-1.17-.56-2.2-1.36-2.9C25.39.42,24.33,0,23.18,0c-1.22,0-2.35.42-3.32,1.07-1.46.98-2.61,2.45-3.42,4.07-.04.08-.08.16-.12.24-.3-.62-.65-1.23-1.04-1.79-.69-.99-1.52-1.86-2.5-2.51C11.82.42,10.68,0,9.46,0c-1.21,0-2.32.51-3.16,1.29-.83.78-1.41,1.88-1.41,3.13,0,.73.21,1.49.65,2.19.55.87,1.42,1.63,2.63,2.25H1.59c-.88,0-1.59.71-1.59,1.59v5.9h15.4v-7.49h1.87v7.49h15.4v-5.9c0-.88-.71-1.59-1.59-1.59m-22.36-2.34c-.62-.39-1-.79-1.22-1.13-.22-.35-.29-.66-.3-.96,0-.5.25-1.04.69-1.46.44-.41,1.03-.67,1.56-.67h.01c.68,0,1.37.23,2.05.68,1.02.67,1.97,1.85,2.64,3.19.34.68.61,1.39.79,2.09-3.08-.32-5.08-1-6.23-1.73m10.54-1.63c.56-.8,1.21-1.47,1.89-1.92.68-.45,1.36-.68,2.05-.68h0c.57,0,1.12.22,1.49.55.38.34.57.74.57,1.17,0,.51-.27,1.26-1.47,2.13-1.14.83-3.1,1.67-6.13,2.26.29-1.2.85-2.47,1.59-3.52m-1.98,27.59h12.51v-13.91h-12.51v13.91Z"/>
</svg>