<?xml version="1.0" encoding="UTF-8"?>
<svg id="svg4488" xmlns="http://www.w3.org/2000/svg" viewBox="0 0 40.22 62.41">
  <defs>
    <style>
      .cls-1 {
        stroke-width: 0px;
      }
    </style>
  </defs>
  <path class="cls-1" d="m15.18,37.96c-.29.97-.24,2.19.03,3.64.49,2.63,1.69,6.04,2.36,9.67h5.06c.7-3.64,1.95-7.05,2.47-9.68.29-1.45.33-2.66.04-3.62-.27-.9-.89-1.62-2.02-2.3h-6c-1.07.68-1.67,1.39-1.94,2.29Z"/>
  <path class="cls-1" d="m27.01,57.95h-13.8c-1.29,0-2.3.98-2.3,2.23v2.23h18.4v-2.23c0-1.25-1.01-2.23-2.3-2.23Z"/>
  <path class="cls-1" d="m34.14,2.23h-11.73c0-1.24-1.02-2.23-2.3-2.23s-2.3.98-2.3,2.23H6.07L0,27.75c.79-.46,1.59-.99,2.63-.99,1.36,0,2.24.82,2.92,1.38.68.56,1.16.85,1.45.85.29,0,.77-.29,1.45-.84.68-.55,1.56-1.36,2.92-1.36s2.24.81,2.92,1.35c.68.55,1.16.84,1.45.84.15,0,.34-.07.58-.21.24-.14.53-.35.87-.63.51-.41,1.14-.97,1.99-1.22.28-.08.59-.14.93-.14,1.35,0,2.24.81,2.92,1.35.68.55,1.16.84,1.45.84.29,0,.77-.3,1.45-.85.68-.55,1.57-1.37,2.92-1.37s2.24.82,2.92,1.37c.34.28.63.49.87.63.24.14.43.21.57.21.29,0,.76-.29,1.44-.85.68-.56,1.57-1.38,2.93-1.38,1.04,0,1.84.53,2.63,1l-6.08-25.51Z"/>
  <path class="cls-1" d="m23.52,53.5h-6.86c-.66,0-1.15.48-1.15,1.12s.49,1.11,1.15,1.11h6.9c.66,0,1.15-.48,1.15-1.11s-.49-1.12-1.15-1.12h-.04Z"/>
  <path class="cls-1" d="m20.11,29.01c-.15,0-.34.07-.58.21-.16.09-.37.26-.57.41v3.73h2.3v-3.73c-.51-.38-.91-.62-1.15-.62Z"/>
</svg>