<?xml version="1.0" encoding="UTF-8"?>
<svg id="Layer_1" data-name="Layer 1" xmlns="http://www.w3.org/2000/svg" viewBox="0 0 17.6 17.6">
  <defs>
    <style>
      .cls-1 {
        fill: #231f20;
      }
    </style>
  </defs>
  <path class="cls-1" d="m17.27,15.73l-3.41-3.42c.96-1.29,1.54-2.88,1.54-4.62C15.4,3.45,11.95,0,7.7,0S0,3.45,0,7.7s3.45,7.7,7.7,7.7c1.73,0,3.33-.58,4.61-1.55l3.42,3.42c.2.2.42.33.77.33.61,0,1.1-.49,1.1-1.1,0-.24-.06-.5-.33-.77ZM2.2,7.7c0-3.04,2.46-5.5,5.5-5.5s5.5,2.46,5.5,5.5-2.46,5.5-5.5,5.5-5.5-2.46-5.5-5.5Z"/>
</svg>