<?xml version="1.0" encoding="UTF-8"?>
<svg id="Layer_1" data-name="Layer 1" xmlns="http://www.w3.org/2000/svg" viewBox="0 0 60 59.62">
  <defs>
    <style>
      .cls-1 {
        fill: #231f20;
        stroke-width: 0px;
      }
    </style>
  </defs>
  <path class="cls-1" d="m0,43.68l27.44,15.93v-23.35L0,20.33v23.35ZM51.35,12.44v2.45c0,1.82-3.46,3.29-7.73,3.29s-7.73-1.47-7.73-3.29v-4.06h.02c.26,1.71,3.6,3.07,7.7,3.07s7.73-1.47,7.73-3.28-3.46-3.29-7.73-3.29c-.34,0-.67.01-1,.03l-4.97-2.89v3.09c0,1.82-3.45,3.29-7.72,3.29-2.68,0-5.04-.58-6.43-1.47-.2-.2-.44-.4-.73-.59-.36-.38-.57-.8-.57-1.24v-2.99l-4.81,2.79c-.35-.02-.7-.03-1.05-.03-4.27,0-7.73,1.47-7.73,3.29s3.46,3.28,7.73,3.28,7.45-1.36,7.7-3.07h.02v4.06c0,1.82-3.45,3.29-7.73,3.29s-7.73-1.47-7.73-3.29v-2.42l-5.95,3.45,27.53,15.99,27.35-15.88-6.18-3.59Zm-13.64,10.17c0,1.82-3.46,3.29-7.73,3.29s-7.73-1.47-7.73-3.29v-4.06h.02c.26,1.71,3.6,3.08,7.71,3.08s7.44-1.36,7.7-3.08h.02v4.06h0Zm-5.15,13.87v23.14l27.44-15.94v-23.14l-27.44,15.94Zm-2.64-29.9c4.27,0,7.72-1.47,7.72-3.29s-3.45-3.29-7.72-3.29-7.73,1.47-7.73,3.29,3.46,3.29,7.73,3.29"/>
</svg>