<?xml version="1.0" encoding="utf-8"?>
<!-- Generator: Adobe Illustrator 27.8.1, SVG Export Plug-In . SVG Version: 6.00 Build 0)  -->
<svg version="1.1" id="Layer_1" xmlns="http://www.w3.org/2000/svg" xmlns:xlink="http://www.w3.org/1999/xlink" x="0px" y="0px"
	 viewBox="0 0 1150 34" style="enable-background:new 0 0 1150 34;" xml:space="preserve">
<style type="text/css">
	.st0{fill:#FFFFFF;}
</style>
<path class="st0" d="M1149.7,14.1v3H-0.3v-3c14.4,0,14.4-14,28.8-14s14.4,14,28.8,14s14.4-14,28.8-14s14.4,14,28.8,14
	c14.4,0,14.4-14,28.8-14c14.4,0,14.4,14,28.8,14s14.4-14,28.8-14s14.4,14,28.7,14s14.4-14,28.7-14c14.4,0,14.4,14,28.8,14
	s14.4-14,28.8-14s14.4,14,28.8,14s14.4-14,28.8-14s14.4,14,28.8,14s14.4-14,28.8-14s14.4,14,28.8,14s14.4-14,28.8-14
	s14.4,14,28.8,14s14.4-14,28.8-14s14.4,14,28.8,14s14.4-14,28.8-14s14.4,14,28.8,14s14.4-14,28.8-14s14.4,14,28.8,14
	s14.4-14,28.8-14s14.4,14,28.8,14s14.4-14,28.7-14s14.4,14,28.8,14s14.4-14,28.7-14s14.4,14,28.8,14s14.4-14,28.8-14
	s14.4,14,28.8,14s14.4-14,28.8-14s14.4,14,28.8,14s14.4-14,28.8-14s14.4,14,28.8,14c14.4,0,14.4-14,28.8-14s14.4,14,28.8,14
	s14.4-14,28.8-14S1135.4,14.1,1149.7,14.1z"/>
<rect y="33.4" class="st0" width="1150" height="0.6"/>
<rect x="-23.2" y="17" class="st0" width="23.2" height="16.4"/>
</svg>
