<?xml version="1.0" encoding="UTF-8"?>
<svg id="Layer_2" data-name="Layer 2" xmlns="http://www.w3.org/2000/svg" viewBox="0 0 1150 23">
  <defs>
    <style>
      .cls-1 {
        fill: #e6e7e8;
        stroke-width: 0px;
      }
    </style>
  </defs>
  <path class="cls-1" d="m1150,23c-9.02,0-13.73-4.59-17.51-8.28-3.41-3.32-5.88-5.72-11.23-5.72s-7.82,2.4-11.24,5.72c-3.79,3.69-8.5,8.28-17.51,8.28s-13.73-4.59-17.51-8.28c-3.41-3.32-5.88-5.72-11.23-5.72s-7.82,2.4-11.23,5.72c-3.79,3.69-8.5,8.28-17.51,8.28s-13.73-4.59-17.51-8.28c-3.41-3.32-5.88-5.72-11.24-5.72s-7.82,2.4-11.23,5.72c-3.79,3.69-8.5,8.28-17.51,8.28s-13.73-4.59-17.51-8.28c-3.41-3.32-5.88-5.72-11.23-5.72s-7.82,2.4-11.23,5.72c-3.79,3.69-8.5,8.28-17.51,8.28s-13.73-4.59-17.51-8.28c-3.41-3.32-5.88-5.72-11.23-5.72s-7.82,2.4-11.23,5.72c-3.79,3.69-8.5,8.28-17.51,8.28s-13.73-4.59-17.51-8.28c-3.41-3.32-5.88-5.72-11.24-5.72s-7.82,2.4-11.23,5.72c-3.79,3.69-8.5,8.28-17.51,8.28s-13.73-4.59-17.51-8.28c-3.41-3.32-5.88-5.72-11.24-5.72s-7.82,2.4-11.23,5.72c-3.79,3.69-8.5,8.28-17.51,8.28s-13.73-4.59-17.51-8.28c-3.41-3.32-5.88-5.72-11.23-5.72s-7.82,2.4-11.23,5.72c-3.79,3.69-8.5,8.28-17.51,8.28s-13.73-4.59-17.51-8.28c-3.41-3.32-5.88-5.72-11.23-5.72s-7.82,2.4-11.23,5.72c-3.79,3.69-8.5,8.28-17.51,8.28s-13.73-4.59-17.51-8.28c-3.41-3.32-5.88-5.72-11.24-5.72s-7.82,2.4-11.23,5.72c-3.79,3.69-8.5,8.28-17.51,8.28s-13.73-4.59-17.51-8.28c-3.41-3.32-5.88-5.72-11.23-5.72s-7.82,2.4-11.23,5.72c-3.79,3.69-8.5,8.28-17.51,8.28s-13.73-4.59-17.51-8.28c-3.41-3.32-5.88-5.72-11.23-5.72s-7.82,2.4-11.24,5.72c-3.79,3.69-8.5,8.28-17.51,8.28s-13.73-4.59-17.52-8.28c-3.41-3.32-5.88-5.72-11.24-5.72s-7.82,2.4-11.24,5.72c-3.79,3.69-8.5,8.28-17.51,8.28s-13.73-4.59-17.52-8.28c-3.41-3.32-5.88-5.72-11.24-5.72s-7.82,2.4-11.24,5.72c-3.79,3.69-8.5,8.28-17.52,8.28s-13.73-4.59-17.52-8.28c-3.41-3.32-5.88-5.72-11.24-5.72s-7.82,2.4-11.24,5.72c-3.79,3.69-8.5,8.28-17.52,8.28s-13.73-4.59-17.52-8.28c-3.41-3.32-5.88-5.72-11.24-5.72s-7.82,2.4-11.23,5.72c-3.79,3.69-8.5,8.28-17.51,8.28s-13.73-4.59-17.51-8.28c-3.41-3.32-5.88-5.72-11.24-5.72s-7.82,2.4-11.24,5.72c-3.79,3.69-8.5,8.28-17.52,8.28s-13.73-4.59-17.52-8.28c-3.41-3.32-5.88-5.72-11.24-5.72s-7.83,2.4-11.24,5.72c-3.79,3.69-8.5,8.28-17.52,8.28s-13.73-4.59-17.52-8.28c-3.41-3.32-5.88-5.72-11.24-5.72s-7.83,2.4-11.24,5.72c-3.79,3.69-8.5,8.28-17.52,8.28s-13.73-4.59-17.52-8.28c-3.41-3.32-5.88-5.72-11.24-5.72s-7.83,2.4-11.24,5.72c-3.79,3.69-8.5,8.28-17.52,8.28v-9c5.36,0,7.83-2.4,11.24-5.72C15.03,4.59,19.74,0,28.76,0s13.73,4.59,17.52,8.28c3.41,3.32,5.88,5.72,11.24,5.72s7.83-2.4,11.24-5.72c3.79-3.69,8.5-8.28,17.52-8.28s13.73,4.59,17.52,8.28c3.41,3.32,5.88,5.72,11.24,5.72s7.83-2.4,11.24-5.72c3.79-3.69,8.5-8.28,17.52-8.28s13.73,4.59,17.52,8.28c3.41,3.32,5.88,5.72,11.24,5.72s7.82-2.4,11.24-5.72c3.79-3.69,8.5-8.28,17.52-8.28s13.73,4.59,17.51,8.28c3.41,3.32,5.88,5.72,11.24,5.72s7.82-2.4,11.23-5.72c3.79-3.69,8.5-8.28,17.51-8.28s13.73,4.59,17.52,8.28c3.41,3.32,5.88,5.72,11.24,5.72s7.82-2.4,11.24-5.72c3.79-3.69,8.5-8.28,17.52-8.28s13.73,4.59,17.52,8.28c3.41,3.32,5.88,5.72,11.24,5.72s7.82-2.4,11.24-5.72c3.79-3.69,8.5-8.28,17.51-8.28s13.73,4.59,17.52,8.28c3.41,3.32,5.88,5.72,11.24,5.72s7.82-2.4,11.24-5.72c3.79-3.69,8.5-8.28,17.51-8.28s13.73,4.59,17.52,8.28c3.41,3.32,5.88,5.72,11.24,5.72s7.82-2.4,11.24-5.72c3.79-3.69,8.5-8.28,17.51-8.28s13.73,4.59,17.51,8.28c3.41,3.32,5.88,5.72,11.23,5.72s7.82-2.4,11.23-5.72c3.79-3.69,8.5-8.28,17.51-8.28s13.73,4.59,17.51,8.28c3.41,3.32,5.88,5.72,11.23,5.72s7.82-2.4,11.23-5.72c3.79-3.69,8.5-8.28,17.51-8.28s13.73,4.59,17.52,8.28c3.41,3.32,5.88,5.72,11.24,5.72s7.82-2.4,11.23-5.72c3.79-3.69,8.5-8.28,17.51-8.28s13.73,4.59,17.51,8.28c3.41,3.32,5.88,5.72,11.23,5.72s7.82-2.4,11.23-5.72c3.79-3.69,8.5-8.28,17.51-8.28s13.73,4.59,17.51,8.28c3.41,3.32,5.88,5.72,11.23,5.72s7.82-2.4,11.23-5.72c3.79-3.69,8.5-8.28,17.51-8.28s13.73,4.59,17.51,8.28c3.41,3.32,5.88,5.72,11.24,5.72s7.82-2.4,11.23-5.72c3.79-3.69,8.5-8.28,17.51-8.28s13.73,4.59,17.51,8.28c3.41,3.32,5.88,5.72,11.24,5.72s7.82-2.4,11.24-5.72c3.79-3.69,8.5-8.28,17.51-8.28s13.73,4.59,17.51,8.28c3.41,3.32,5.88,5.72,11.24,5.72s7.82-2.4,11.24-5.72c3.79-3.69,8.5-8.28,17.51-8.28s13.73,4.59,17.51,8.28c3.41,3.32,5.88,5.72,11.23,5.72s7.82-2.4,11.23-5.72c3.79-3.69,8.5-8.28,17.51-8.28s13.73,4.59,17.51,8.28c3.41,3.32,5.88,5.72,11.24,5.72s7.82-2.4,11.23-5.72c3.79-3.69,8.5-8.28,17.51-8.28s13.73,4.59,17.51,8.28c3.41,3.32,5.88,5.72,11.23,5.72s7.82-2.4,11.23-5.72c3.79-3.69,8.5-8.28,17.51-8.28s13.73,4.59,17.51,8.28c3.41,3.32,5.88,5.72,11.23,5.72v9Z"/>
</svg>